# xmcd
#
# Track frame offsets:
#	182
#	13935
#	36715
#	53092
#	69690
#	81910
#	99335
#	119470
#	132235
#	147037
#	165077
#	182665
#
# Disc length: 2752 seconds
#
# Revision: 1
# Processed by: cddbd v1.5.2PL0 Copyright (c) Steve Scherf et al.
# Submitted via: EZCDAudioConverter 4.0.5.1
#
DISCID=a20abe0c
DTITLE=The World Wide Message Tribe and Friends - Jumping in the House of God 
DTITLE=(US Release)
DYEAR=1996
DGENRE=Gospel
TTITLE0=The World Wide Message Tribe - The Real Thing
TTITLE1=The World Wide Message Tribe - Kik-Start
TTITLE2=Sani - Joy
TTITLE3=Shine - Jesus, Name Above All Names
TTITLE4=The World Wide Message Tribe vs. HOG - Jumping in the House of God
TTITLE5=HOG, Doug Walker and Shine - Holy
TTITLE6=Lynsey Berry - Hear My Prayer
TTITLE7=The World Wide Message Tribe - Reach for Heaven
TTITLE8=Sani - Hosanna
TTITLE9=The World Wide Message Tribe - Year of the Lord's Favour
TTITLE10=Simon Jinadu and Sani - Be Still
TTITLE11=The World Wide Message Tribe - Glory
EXTD=
EXTT0=
EXTT1=
EXTT2=
EXTT3=
EXTT4=
EXTT5=
EXTT6=
EXTT7=
EXTT8=
EXTT9=
EXTT10=
EXTT11=
PLAYORDER=
